<svg width="18" height="18" viewBox="0 0 18 18" fill="none" xmlns="http://www.w3.org/2000/svg">
<g opacity="0.4">
<path d="M16.292 1.70789C14.4126 -0.17151 11.3655 -0.17151 9.48606 1.70789L7.05538 4.13857C6.7869 4.40705 6.7869 4.84235 7.05538 5.11084C7.32387 5.37933 7.75917 5.37933 8.02766 5.11084L10.4583 2.68016C11.8008 1.33773 13.9773 1.33773 15.3197 2.68016C16.6621 4.02259 16.6621 6.19909 15.3197 7.54152L12.889 9.9722C12.6205 10.2407 12.6205 10.676 12.889 10.9445C13.1575 11.213 13.5928 11.213 13.8613 10.9445L16.292 8.51379C18.1714 6.63439 18.1714 3.58729 16.292 1.70789Z" fill="black"/>
<path d="M5.11084 8.02766C5.37933 7.75917 5.37933 7.32387 5.11084 7.05538C4.84235 6.7869 4.40705 6.7869 4.13857 7.05538L1.70789 9.48606C-0.17151 11.3655 -0.17151 14.4126 1.70789 16.292C3.58729 18.1714 6.63439 18.1714 8.51379 16.292L10.9445 13.8613C11.213 13.5928 11.213 13.1575 10.9445 12.889C10.676 12.6205 10.2407 12.6205 9.9722 12.889L7.54152 15.3197C6.19909 16.6621 4.02259 16.6621 2.68016 15.3197C1.33773 13.9773 1.33773 11.8008 2.68016 10.4583L5.11084 8.02766Z" fill="black"/>
<path d="M11.9167 7.05538C12.1852 6.7869 12.1852 6.35159 11.9167 6.08311C11.6482 5.81462 11.2129 5.81462 10.9445 6.08311L6.0831 10.9445C5.81461 11.213 5.81461 11.6483 6.0831 11.9167C6.35158 12.1852 6.78689 12.1852 7.05537 11.9167L11.9167 7.05538Z" fill="black"/>
</g>
</svg>
