<svg width="26" height="24" viewBox="0 0 26 24" fill="none" xmlns="http://www.w3.org/2000/svg">
<path d="M24.25 14.4999V4.99994V4.99583C24.25 3.59844 24.25 2.89931 23.9778 2.36505C23.7381 1.89465 23.3551 1.51217 22.8847 1.27248C22.35 1 21.6504 1 20.2502 1H5.75024C4.35011 1 3.64953 1 3.11475 1.27248C2.64434 1.51217 2.26217 1.89465 2.02248 2.36505C1.75 2.89983 1.75 3.59981 1.75 4.99994V19.3387C1.75 20.6708 1.75 21.337 2.02307 21.6791C2.26056 21.9766 2.62054 22.1497 3.00122 22.1492C3.43894 22.1488 3.9593 21.7326 4.99951 20.9004L6.90446 19.3765C7.31055 19.0516 7.51355 18.8893 7.73965 18.7737C7.94024 18.6713 8.15349 18.5963 8.37415 18.551C8.62286 18.5 8.88315 18.5 9.4032 18.5H20.2501C21.6502 18.5 22.35 18.5 22.8847 18.2275C23.3551 17.9878 23.7381 17.6054 23.9778 17.135C24.25 16.6008 24.25 15.9014 24.25 14.504V14.4999Z" stroke="url(#paint0_linear_325_33)" stroke-width="2" stroke-linecap="round" stroke-linejoin="round"/>
<defs>
<linearGradient id="paint0_linear_325_33" x1="1.75" y1="3.05999" x2="24.2407" y2="3.96411" gradientUnits="userSpaceOnUse">
<stop offset="0.11067" stop-color="#17D864"/>
<stop offset="1" stop-color="#16CF8D"/>
</linearGradient>
</defs>
</svg>
