<svg width="29" height="29" viewBox="0 0 29 29" fill="none" xmlns="http://www.w3.org/2000/svg">
<path fill-rule="evenodd" clip-rule="evenodd" d="M25.3031 0.601602C25.098 0.396484 24.8198 0.28125 24.5297 0.28125C24.2396 0.28125 23.9614 0.396484 23.7563 0.601602L12.1553 12.2026C12.0353 12.3226 11.9448 12.469 11.8911 12.6301L10.3443 17.2705C10.2133 17.6635 10.3156 18.0968 10.6085 18.3898C10.9015 18.6827 11.3348 18.785 11.7278 18.654L16.3682 17.1072C16.5293 17.0535 16.6757 16.963 16.7957 16.843L28.3967 5.24199C28.8238 4.81485 28.8238 4.12233 28.3967 3.69519L25.3031 0.601602ZM13.8847 13.5668L24.5297 2.9218L26.0765 4.46859L15.4315 15.1136L13.1113 15.887L13.8847 13.5668Z" fill="url(#paint0_linear_302_40)"/>
<path d="M1.375 2.46875C0.770939 2.46875 0.28125 2.95844 0.28125 3.5625V27.625C0.28125 28.2291 0.770939 28.7188 1.375 28.7188H25.4375C26.0416 28.7188 26.5312 28.2291 26.5312 27.625V12.3125C26.5312 11.7084 26.0416 11.2188 25.4375 11.2188C24.8334 11.2188 24.3438 11.7084 24.3438 12.3125V26.5312H2.46875V4.65625H16.6875C17.2916 4.65625 17.7812 4.16656 17.7812 3.5625C17.7812 2.95844 17.2916 2.46875 16.6875 2.46875H1.375Z" fill="url(#paint1_linear_302_40)"/>
<defs>
<linearGradient id="paint0_linear_302_40" x1="0.28125" y1="3.05114" x2="28.7106" y2="4.12531" gradientUnits="userSpaceOnUse">
<stop offset="0.11067" stop-color="#17D864"/>
<stop offset="1" stop-color="#16CF8D"/>
</linearGradient>
<linearGradient id="paint1_linear_302_40" x1="0.28125" y1="3.05114" x2="28.7106" y2="4.12531" gradientUnits="userSpaceOnUse">
<stop offset="0.11067" stop-color="#17D864"/>
<stop offset="1" stop-color="#16CF8D"/>
</linearGradient>
</defs>
</svg>
