<svg width="38" height="38" viewBox="0 0 38 38" fill="none" xmlns="http://www.w3.org/2000/svg">
<path d="M15.7938 11.4813C15.1344 12.1407 14.6875 13.1789 14.6875 14.6875C14.6875 15.4814 14.0439 16.125 13.25 16.125C12.4561 16.125 11.8125 15.4814 11.8125 14.6875C11.8125 12.6024 12.4437 10.7656 13.7609 9.44838C15.0781 8.13118 16.9149 7.5 19 7.5C21.0851 7.5 22.9219 8.13118 24.2391 9.44838C25.5563 10.7656 26.1875 12.6024 26.1875 14.6875C26.1875 16.7726 25.5563 18.6094 24.2391 19.9266C23.2342 20.9315 21.9268 21.5372 20.4375 21.7678V23.3118C20.4375 24.1057 19.7939 24.75 19 24.75C18.2061 24.75 17.5625 24.1064 17.5625 23.3125V20.4375C17.5625 19.6436 18.2061 19 19 19C20.5086 19 21.5468 18.5531 22.2062 17.8937C22.8656 17.2343 23.3125 16.1961 23.3125 14.6875C23.3125 13.1789 22.8656 12.1407 22.2062 11.4813C21.5468 10.8219 20.5086 10.375 19 10.375C17.4914 10.375 16.4532 10.8219 15.7938 11.4813Z" fill="url(#paint0_linear_155_17)"/>
<path d="M20.4375 27.625C20.4375 26.8311 19.7939 26.1875 19 26.1875C18.2061 26.1875 17.5625 26.8311 17.5625 27.625V29.0625C17.5625 29.8564 18.2061 30.5 19 30.5C19.7939 30.5 20.4375 29.8564 20.4375 29.0625V27.625Z" fill="url(#paint1_linear_155_17)"/>
<path fill-rule="evenodd" clip-rule="evenodd" d="M0.3125 19C0.3125 8.67918 8.67918 0.3125 19 0.3125C29.3208 0.3125 37.6875 8.67918 37.6875 19C37.6875 29.3208 29.3208 37.6875 19 37.6875C8.67918 37.6875 0.3125 29.3208 0.3125 19ZM19 3.1875C10.267 3.1875 3.1875 10.267 3.1875 19C3.1875 27.733 10.267 34.8125 19 34.8125C27.733 34.8125 34.8125 27.733 34.8125 19C34.8125 10.267 27.733 3.1875 19 3.1875Z" fill="url(#paint2_linear_155_17)"/>
<defs>
<linearGradient id="paint0_linear_155_17" x1="0.3125" y1="3.95293" x2="37.6791" y2="5.36487" gradientUnits="userSpaceOnUse">
<stop offset="0.11067" stop-color="#17D864"/>
<stop offset="1" stop-color="#16CF8D"/>
</linearGradient>
<linearGradient id="paint1_linear_155_17" x1="0.3125" y1="3.95293" x2="37.6791" y2="5.36487" gradientUnits="userSpaceOnUse">
<stop offset="0.11067" stop-color="#17D864"/>
<stop offset="1" stop-color="#16CF8D"/>
</linearGradient>
<linearGradient id="paint2_linear_155_17" x1="0.3125" y1="3.95293" x2="37.6791" y2="5.36487" gradientUnits="userSpaceOnUse">
<stop offset="0.11067" stop-color="#17D864"/>
<stop offset="1" stop-color="#16CF8D"/>
</linearGradient>
</defs>
</svg>
