<svg width="26" height="25" viewBox="0 0 26 25" fill="none" xmlns="http://www.w3.org/2000/svg">
<path d="M24.25 15.1164V5.29977V5.29553C24.25 3.85156 24.25 3.12912 23.9778 2.57706C23.7381 2.09097 23.3551 1.69574 22.8847 1.44807C22.35 1.1665 21.6504 1.1665 20.2502 1.1665H5.75024C4.35011 1.1665 3.64953 1.1665 3.11475 1.44807C2.64434 1.69574 2.26217 2.09097 2.02248 2.57706C1.75 3.12966 1.75 3.85297 1.75 5.29977V20.1165C1.75 21.493 1.75 22.1814 2.02307 22.5349C2.26056 22.8423 2.62054 23.0211 3.00122 23.0207C3.43894 23.0202 3.9593 22.5902 4.99951 21.7303L6.90446 20.1555C7.31055 19.8198 7.51355 19.6521 7.73965 19.5327C7.94024 19.4268 8.15349 19.3494 8.37415 19.3026C8.62286 19.2498 8.88315 19.2498 9.4032 19.2498H20.2501C21.6502 19.2498 22.35 19.2498 22.8847 18.9682C23.3551 18.7206 23.7381 18.3255 23.9778 17.8394C24.25 17.2873 24.25 16.5647 24.25 15.1207V15.1164Z" stroke="url(#paint0_linear_304_19)" stroke-width="2" stroke-linecap="round" stroke-linejoin="round"/>
<defs>
<linearGradient id="paint0_linear_304_19" x1="1.75" y1="3.29516" x2="24.243" y2="4.1702" gradientUnits="userSpaceOnUse">
<stop offset="0.11067" stop-color="#17D864"/>
<stop offset="1" stop-color="#16CF8D"/>
</linearGradient>
</defs>
</svg>
