<svg width="30" height="26" viewBox="0 0 30 26" fill="none" xmlns="http://www.w3.org/2000/svg">
<g clip-path="url(#clip0_202_34)">
<path d="M26.2812 4.26736H21.9159L19.7687 1.04658C19.5439 0.709433 19.1656 0.506874 18.7604 0.506874H11.2396C10.8344 0.506874 10.456 0.709374 10.2313 1.04658L8.08412 4.26736H3.71877C1.66828 4.26736 0 5.93559 0 7.98613V21.7743C0 23.8248 1.66828 25.4931 3.71877 25.4931H26.2812C28.3317 25.4931 30 23.8248 30 21.7743V7.98613C30 5.93564 28.3317 4.26736 26.2812 4.26736ZM27.5763 21.7743C27.5763 22.4884 26.9953 23.0693 26.2812 23.0693H3.71877C3.00469 23.0693 2.42373 22.4884 2.42373 21.7743V7.98613C2.42373 7.27205 3.00475 6.69109 3.71877 6.69109H8.73264C9.13781 6.69109 9.51621 6.48859 9.74098 6.15144L11.8881 2.93066H18.1118L20.259 6.15144C20.4837 6.48859 20.8621 6.69109 21.2673 6.69109H26.2812C26.9953 6.69109 27.5763 7.27205 27.5763 7.98613L27.5763 21.7743Z" fill="url(#paint0_linear_202_34)"/>
<path d="M15 8.02779C11.5671 8.02779 8.77429 10.8207 8.77429 14.2535C8.77429 17.6864 11.5672 20.4792 15 20.4792C18.4328 20.4792 21.2257 17.6863 21.2257 14.2535C21.2257 10.8207 18.4329 8.02779 15 8.02779ZM15 18.0555C12.9036 18.0555 11.198 16.3499 11.198 14.2535C11.198 12.1571 12.9036 10.4515 15 10.4515C17.0964 10.4515 18.802 12.1571 18.802 14.2535C18.802 16.35 17.0964 18.0555 15 18.0555Z" fill="url(#paint1_linear_202_34)"/>
</g>
<defs>
<linearGradient id="paint0_linear_202_34" x1="1.10324e-07" y1="2.9406" x2="29.9744" y2="4.30049" gradientUnits="userSpaceOnUse">
<stop offset="0.11067" stop-color="#17D864"/>
<stop offset="1" stop-color="#16CF8D"/>
</linearGradient>
<linearGradient id="paint1_linear_202_34" x1="8.77429" y1="9.24059" x2="21.2229" y2="9.71098" gradientUnits="userSpaceOnUse">
<stop offset="0.11067" stop-color="#17D864"/>
<stop offset="1" stop-color="#16CF8D"/>
</linearGradient>
<clipPath id="clip0_202_34">
<rect width="30" height="26" fill="white"/>
</clipPath>
</defs>
</svg>
