<svg width="38" height="38" viewBox="0 0 38 38" fill="none" xmlns="http://www.w3.org/2000/svg">
<circle cx="19" cy="19" r="19" fill="url(#paint0_linear_317_20)"/>
<path d="M17.4937 25.4544L24.4937 21.413L24.4938 21.4129C25.8064 20.6551 26.4625 20.2763 26.6828 19.7816C26.8749 19.3501 26.875 18.8572 26.6829 18.4257C26.4626 17.931 25.8064 17.552 24.4938 16.7942L17.4938 12.7527C16.1811 11.9949 15.5246 11.616 14.9861 11.6726C14.5163 11.7219 14.0894 11.9684 13.8118 12.3505C13.4936 12.7885 13.4936 13.5459 13.4936 15.0603L13.4936 15.0623L13.4936 23.1452C13.4936 24.6609 13.4937 25.4186 13.812 25.8567C14.0896 26.2389 14.5165 26.4852 14.9863 26.5346C15.5248 26.5912 16.181 26.2123 17.4936 25.4545L17.4937 25.4544Z" fill="white"/>
<defs>
<linearGradient id="paint0_linear_317_20" x1="1.39744e-07" y1="3.7013" x2="37.9914" y2="5.13686" gradientUnits="userSpaceOnUse">
<stop offset="0.11067" stop-color="#17D864"/>
<stop offset="1" stop-color="#16CF8D"/>
</linearGradient>
</defs>
</svg>
