<svg width="20" height="20" viewBox="0 0 20 20" fill="none" xmlns="http://www.w3.org/2000/svg">
<path fill-rule="evenodd" clip-rule="evenodd" d="M8.375 0.25C3.88769 0.25 0.25 3.88769 0.25 8.375C0.25 12.8623 3.88769 16.5 8.375 16.5C10.326 16.5 12.1164 15.8123 13.5171 14.6661L18.363 19.512C18.6803 19.8293 19.1947 19.8293 19.512 19.512C19.8293 19.1947 19.8293 18.6803 19.512 18.363L14.6661 13.5171C15.8123 12.1164 16.5 10.326 16.5 8.375C16.5 3.88769 12.8623 0.25 8.375 0.25ZM1.875 8.375C1.875 4.78515 4.78515 1.875 8.375 1.875C11.9649 1.875 14.875 4.78515 14.875 8.375C14.875 11.9649 11.9649 14.875 8.375 14.875C4.78515 14.875 1.875 11.9649 1.875 8.375Z" fill="#5F5F5F"/>
</svg>
