<svg width="21" height="18" viewBox="0 0 21 18" fill="none" xmlns="http://www.w3.org/2000/svg">
<path fill-rule="evenodd" clip-rule="evenodd" d="M20.0782 8.7218C20.0782 9.07465 19.8679 9.39355 19.5436 9.53255L2.07951 17.0172C1.76025 17.154 1.3904 17.0907 1.13479 16.8555C0.879181 16.6203 0.785402 16.257 0.895243 15.9275L3.29713 8.7218L0.895243 1.51613C0.785401 1.1866 0.879181 0.823289 1.13479 0.588094C1.3904 0.352899 1.76025 0.289615 2.07951 0.426444L19.5436 7.91105C19.8679 8.05005 20.0782 8.36895 20.0782 8.7218ZM4.86268 9.60387L3.19 14.6219L16.9569 8.7218L3.19 2.82169L4.86268 7.83973L7.96922 7.83973C8.45637 7.83973 8.85129 8.23465 8.85129 8.7218C8.85129 9.20895 8.45637 9.60387 7.96922 9.60387H4.86268Z" fill="url(#paint0_linear_88_85)"/>
<defs>
<linearGradient id="paint0_linear_88_85" x1="6.92067" y1="-4.80113" x2="8.75903" y2="22.3054" gradientUnits="userSpaceOnUse">
<stop stop-color="#78EC41"/>
<stop offset="0.367613" stop-color="#4AD180"/>
<stop offset="0.829321" stop-color="#047460"/>
</linearGradient>
</defs>
</svg>
