<svg width="33" height="33" viewBox="0 0 33 33" fill="none" xmlns="http://www.w3.org/2000/svg">
<path fill-rule="evenodd" clip-rule="evenodd" d="M11 0C10.0275 0 9.09491 0.386308 8.40728 1.07394C7.71964 1.76158 7.33333 2.69421 7.33333 3.66667V7.33333H1.83333C1.3471 7.33333 0.880788 7.52649 0.536971 7.8703C0.193154 8.21412 0 8.68044 0 9.16667C0 9.6529 0.193154 10.1192 0.536971 10.463C0.880788 10.8068 1.3471 11 1.83333 11H3.454C3.52 11.6197 3.597 12.3823 3.674 13.2238C3.87567 15.4275 4.07367 18.1078 4.07367 20.1667C4.07367 22.8617 3.73817 26.598 3.49617 28.9227C3.44256 29.4367 3.4974 29.9562 3.65715 30.4477C3.8169 30.9392 4.078 31.3917 4.42357 31.776C4.76915 32.1603 5.1915 32.4678 5.66335 32.6786C6.13519 32.8895 6.64603 32.9989 7.16283 33H25.8372C26.354 32.9989 26.8648 32.8895 27.3367 32.6786C27.8085 32.4678 28.2309 32.1603 28.5764 31.776C28.922 31.3917 29.1831 30.9392 29.3428 30.4477C29.5026 29.9562 29.5574 29.4367 29.5038 28.9227C29.2618 26.598 28.9263 22.8617 28.9263 20.1667C28.9263 18.1078 29.1225 15.4275 29.326 13.2238C29.403 12.3823 29.48 11.6197 29.546 11H31.1667C31.6529 11 32.1192 10.8068 32.463 10.463C32.8068 10.1192 33 9.6529 33 9.16667C33 8.68044 32.8068 8.21412 32.463 7.8703C32.1192 7.52649 31.6529 7.33333 31.1667 7.33333H25.6667V3.66667C25.6667 2.69421 25.2804 1.76158 24.5927 1.07394C23.9051 0.386308 22.9725 0 22 0H11ZM22 7.33333V3.66667H11V7.33333H22ZM7.326 12.8883C7.26183 12.1953 7.19767 11.5537 7.14083 11H25.8592C25.7941 11.6291 25.733 12.2585 25.6758 12.8883C25.4705 15.1103 25.2597 17.93 25.2597 20.1667C25.2597 23.0707 25.6153 26.9757 25.8555 29.3003V29.3132C25.8537 29.3187 25.8505 29.3237 25.8463 29.3278L25.8408 29.3333H7.15917C7.15271 29.3287 7.14764 29.3223 7.1445 29.315V29.3003C7.38467 26.9757 7.74033 23.0707 7.74033 20.1667C7.74033 17.93 7.5295 15.1103 7.326 12.8883Z" fill="url(#paint0_linear_409_42)"/>
<defs>
<linearGradient id="paint0_linear_409_42" x1="1.21356e-07" y1="3.21429" x2="32.9926" y2="4.46095" gradientUnits="userSpaceOnUse">
<stop offset="0.11067" stop-color="#17D864"/>
<stop offset="1" stop-color="#16CF8D"/>
</linearGradient>
</defs>
</svg>
